<?xml version="1.0" standalone="no"?>
<!DOCTYPE svg PUBLIC "-//W3C//DTD SVG 20010904//EN"
 "http://www.w3.org/TR/2001/REC-SVG-20010904/DTD/svg10.dtd">
<svg version="1.0" xmlns="http://www.w3.org/2000/svg"
 width="1280.000000pt" height="1171.000000pt" viewBox="0 0 1280.000000 1171.000000"
 preserveAspectRatio="xMidYMid meet">
<g transform="translate(0.000000,1171.000000) scale(0.100000,-0.100000)"
fill="#000000" stroke="none">
<path d="M6430 11686 c-62 -33 -72 -46 -192 -246 -192 -319 -385 -714 -559
-1143 -60 -147 -134 -322 -165 -390 -130 -280 -166 -366 -275 -657 -99 -265
-139 -354 -301 -680 -268 -539 -357 -681 -568 -905 -190 -203 -341 -419 -411
-590 -21 -52 -56 -176 -84 -295 -51 -224 -112 -421 -151 -487 -26 -45 -67 -77
-179 -138 -38 -21 -107 -60 -151 -86 -45 -27 -90 -49 -100 -49 -25 0 -108 69
-176 145 -152 172 -303 369 -591 773 -202 281 -290 378 -413 450 -111 66 -182
85 -294 80 -114 -5 -175 -31 -255 -112 -72 -72 -105 -136 -264 -516 -239 -572
-325 -752 -427 -886 -74 -97 -79 -107 -110 -198 -29 -83 -57 -221 -114 -546
-86 -499 -132 -679 -250 -980 -37 -96 -87 -242 -110 -325 -57 -204 -92 -275
-188 -377 -105 -113 -112 -126 -84 -183 24 -50 54 -73 105 -82 50 -8 109 29
189 116 112 123 152 206 225 461 24 85 73 227 108 315 112 280 170 512 256
1010 79 463 96 526 174 630 122 164 213 350 447 910 142 341 165 392 199 441
57 83 115 93 225 40 106 -51 182 -129 334 -343 378 -533 656 -882 781 -980 49
-38 59 -51 54 -67 -17 -53 -34 -175 -44 -316 -32 -431 -53 -574 -93 -634 -40
-61 -131 -144 -332 -304 -144 -114 -254 -219 -692 -656 -591 -591 -691 -704
-800 -905 -23 -44 -52 -72 -158 -154 -246 -191 -364 -310 -494 -500 -202 -295
-335 -740 -396 -1332 -32 -309 -47 -782 -26 -856 13 -48 50 -79 99 -86 70 -10
128 29 144 97 5 19 18 29 56 43 170 60 509 605 1054 1693 185 369 237 454 332
543 146 136 472 251 715 252 172 1 246 -22 575 -179 131 -62 255 -114 330
-137 248 -75 369 -132 537 -252 105 -74 332 -299 433 -428 43 -55 142 -163
219 -240 176 -176 301 -280 602 -501 97 -72 -141 -26 -561 108 -448 142 -636
175 -817 145 -249 -42 -558 -178 -1283 -562 -574 -305 -786 -405 -937 -441
-109 -25 -125 -33 -138 -65 -17 -40 -6 -74 35 -105 40 -30 46 -30 180 10 179
54 408 162 910 431 540 289 858 440 1085 515 262 87 379 75 898 -89 384 -122
499 -146 807 -170 134 -10 224 -30 380 -83 135 -46 344 -140 490 -221 177 -98
183 -100 300 -100 108 1 108 1 470 106 367 107 401 111 940 112 310 1 475 5
530 13 44 7 217 35 385 62 496 79 627 91 855 79 154 -9 242 -26 445 -89 558
-172 1349 -297 2271 -360 109 -7 144 -13 170 -29 49 -30 109 -28 149 5 45 39
64 89 50 139 -5 22 -22 98 -36 170 -90 455 -292 1169 -461 1624 -125 336 -194
470 -303 586 -36 39 -137 153 -225 255 -218 252 -287 323 -450 463 -322 278
-363 323 -406 456 -44 138 -96 237 -210 398 -165 236 -476 828 -539 1028 -86
273 -100 297 -271 487 -63 70 -129 151 -146 180 -43 71 -59 137 -147 623 -105
575 -106 578 -168 630 -30 26 -37 27 -98 22 -111 -10 -225 -56 -408 -165 -105
-62 -108 -62 -154 4 -36 53 -51 103 -98 328 -62 301 -93 372 -224 513 -176
191 -472 584 -506 672 -12 31 -39 145 -60 254 -65 326 -80 367 -249 655 -144
245 -199 364 -255 548 -58 194 -95 278 -243 555 -76 142 -140 277 -173 365
-165 442 -272 625 -398 681 -64 28 -75 28 -132 -1z m130 -385 c48 -96 92 -202
165 -396 36 -98 99 -229 184 -389 142 -264 181 -353 231 -526 57 -194 115
-319 289 -613 133 -225 153 -282 206 -566 33 -183 74 -312 125 -390 97 -150
358 -486 483 -621 113 -121 126 -151 182 -427 57 -280 101 -388 200 -486 54
-55 104 -79 172 -85 70 -6 131 15 243 83 178 108 223 124 233 83 4 -13 38
-198 77 -413 84 -462 101 -537 146 -631 38 -81 81 -139 199 -269 138 -152 149
-170 201 -333 47 -150 117 -318 187 -452 191 -362 311 -572 396 -694 113 -161
150 -230 190 -354 60 -187 104 -238 476 -558 146 -126 248 -231 456 -474 68
-80 156 -179 195 -222 78 -83 132 -183 217 -398 130 -329 330 -986 423 -1385
36 -153 14 -143 -60 30 -100 229 -236 493 -318 615 -198 296 -670 852 -1268
1495 -282 302 -414 434 -630 626 -360 319 -534 515 -628 704 -47 94 -60 143
-133 525 -107 555 -226 906 -350 1030 -93 93 -285 150 -758 225 -380 60 -481
84 -676 162 -562 223 -1113 608 -1299 906 -68 110 -91 189 -109 382 -6 63 10
181 31 227 26 58 67 97 189 180 114 78 170 135 208 212 34 71 40 123 22 187
-24 82 -75 161 -337 519 -38 52 -70 100 -70 105 0 6 51 63 113 126 170 174
220 275 238 484 6 61 21 229 35 375 73 794 43 1152 -118 1403 -28 44 -32 77
-8 77 5 0 28 -36 50 -79z m-141 -180 c96 -224 106 -574 36 -1291 -8 -85 -19
-207 -24 -270 -15 -195 -43 -247 -240 -444 -124 -125 -131 -135 -131 -172 0
-56 35 -122 135 -259 252 -341 295 -409 295 -460 0 -60 -52 -116 -198 -215
-143 -97 -212 -186 -243 -316 -30 -125 -5 -411 48 -544 126 -315 548 -677
1132 -969 376 -189 535 -237 1031 -316 353 -56 556 -105 639 -156 117 -71 235
-440 371 -1169 36 -191 58 -266 106 -361 110 -219 264 -393 664 -754 252 -228
385 -360 681 -680 533 -575 1019 -1149 1186 -1399 82 -123 185 -322 298 -576
48 -107 103 -225 121 -262 19 -37 34 -73 34 -79 0 -14 -86 -9 -440 27 -755 76
-1288 173 -1754 320 -172 54 -264 72 -434 84 -228 17 -436 -3 -1037 -100 -352
-57 -426 -62 -790 -55 -440 9 -595 -9 -945 -111 -85 -25 -192 -56 -238 -70
-184 -53 -250 -51 -352 11 -70 43 -293 154 -380 190 -36 15 -74 36 -86 46 -11
11 -63 33 -116 49 -359 112 -965 564 -1282 955 -137 168 -231 269 -341 364
-228 197 -419 302 -679 375 -55 16 -136 44 -180 62 -144 61 -465 219 -466 229
0 6 168 65 373 133 516 170 902 317 1207 457 341 158 637 223 1115 245 324 16
583 -6 887 -75 134 -30 617 -158 677 -180 117 -41 266 -155 513 -392 310 -297
333 -312 533 -340 88 -12 169 -13 402 -8 339 7 329 9 418 -87 65 -70 144 -201
225 -371 31 -67 65 -129 74 -137 14 -11 75 -14 329 -15 342 -1 445 -12 652
-65 153 -39 237 -74 480 -200 116 -60 247 -124 292 -144 139 -59 403 -126 499
-126 46 0 84 34 84 75 0 69 -23 86 -140 104 -201 31 -336 81 -636 236 -290
150 -395 192 -586 235 -183 42 -279 51 -575 57 l-292 6 -60 121 c-118 238
-244 399 -356 456 l-50 25 -365 1 c-404 0 -471 8 -547 63 -21 15 -121 107
-223 203 -311 295 -443 398 -582 454 -59 25 -435 127 -674 185 -399 95 -751
118 -1204 79 -386 -34 -630 -98 -979 -255 -505 -227 -1387 -534 -1907 -664
-156 -39 -405 -113 -471 -140 -223 -89 -363 -207 -482 -406 -23 -38 -132 -248
-241 -465 -363 -721 -633 -1192 -811 -1415 -84 -106 -93 -102 -90 45 7 337 52
729 116 1010 118 513 296 799 679 1093 172 132 203 162 248 245 109 198 209
310 795 892 386 385 499 491 648 609 216 172 372 327 408 403 39 84 63 226 87
528 34 430 36 442 106 497 45 35 142 94 294 178 230 128 293 244 414 770 51
221 84 302 182 453 71 109 148 203 282 346 113 120 205 243 300 402 115 192
382 716 464 909 16 39 81 207 145 374 63 167 153 386 200 485 47 100 138 312
203 471 168 416 453 1005 485 1005 7 0 22 -22 34 -49z"/>
<path d="M7460 4954 c-14 -2 -221 -8 -460 -14 -699 -16 -932 -51 -1352 -201
-363 -130 -492 -148 -1111 -156 -407 -5 -701 6 -823 31 -96 20 -134 -2 -134
-79 0 -46 41 -79 116 -93 160 -30 651 -46 1006 -32 460 17 663 46 886 126 363
131 603 187 912 213 178 15 1000 34 1219 28 279 -7 406 -33 631 -127 123 -52
189 -70 425 -120 83 -18 175 -40 205 -51 107 -37 170 -14 170 62 0 71 -64 99
-365 163 -219 47 -256 58 -395 116 -215 91 -401 125 -720 134 -102 2 -196 3
-210 0z"/>
</g>
</svg>
